<svg width="19" height="20" viewBox="0 0 19 20" fill="none" xmlns="http://www.w3.org/2000/svg">
<path fill-rule="evenodd" clip-rule="evenodd" d="M5.66728 0.751069C6.66255 0.704901 6.97988 0.694641 9.51516 0.694641C12.0504 0.694641 12.3678 0.705756 13.3622 0.751069C14.3566 0.796382 15.0354 0.956259 15.6293 1.18795C16.2513 1.42478 16.8155 1.79498 17.2822 2.27376C17.7573 2.74313 18.1239 3.31082 18.3581 3.93837C18.5889 4.53684 18.7467 5.22081 18.7925 6.22111C18.8383 7.22569 18.8485 7.54545 18.8485 10.0992C18.8485 12.6538 18.8375 12.9736 18.7925 13.9765C18.7475 14.9768 18.5889 15.6607 18.3581 16.2592C18.1239 16.8868 17.7567 17.4555 17.2822 17.9255C16.8155 18.4043 16.2513 18.7737 15.6293 19.0096C15.0354 19.2422 14.3566 19.4012 13.3639 19.4474C12.3678 19.4935 12.0504 19.5038 9.51516 19.5038C6.97988 19.5038 6.66255 19.4927 5.66728 19.4474C4.67455 19.4021 3.99576 19.2422 3.40182 19.0096C2.77897 18.7736 2.21464 18.4037 1.74813 17.9255C1.2733 17.4559 0.905848 16.8875 0.671399 16.2601C0.44146 15.6616 0.283642 14.9776 0.237824 13.9773C0.192006 12.9727 0.181824 12.653 0.181824 10.0992C0.181824 7.5446 0.192854 7.22484 0.237824 6.22282C0.282793 5.22081 0.44146 4.53684 0.671399 3.93837C0.906195 3.31089 1.27392 2.74254 1.74897 2.2729C2.21483 1.79455 2.77859 1.4243 3.40097 1.18795C3.99491 0.956259 4.6737 0.797237 5.66643 0.751069H5.66728ZM13.2867 2.44389C12.3024 2.39858 12.0072 2.38918 9.51516 2.38918C7.02316 2.38918 6.72788 2.39858 5.74364 2.44389C4.83322 2.48579 4.3394 2.63882 4.01019 2.76792C3.57491 2.93892 3.26352 3.14154 2.93685 3.4707C2.6272 3.77426 2.38889 4.1438 2.2394 4.55223C2.11128 4.88395 1.9594 5.38154 1.91782 6.29892C1.87285 7.29067 1.86352 7.5882 1.86352 10.0992C1.86352 12.6102 1.87285 12.9078 1.91782 13.8995C1.9594 14.8169 2.11128 15.3145 2.2394 15.6462C2.38873 16.054 2.62716 16.4242 2.93685 16.7277C3.23807 17.0398 3.60546 17.28 4.01019 17.4305C4.3394 17.5596 4.83322 17.7127 5.74364 17.7545C6.72788 17.7999 7.02231 17.8093 9.51516 17.8093C12.008 17.8093 12.3024 17.7999 13.2867 17.7545C14.1971 17.7127 14.6909 17.5596 15.0201 17.4305C15.4554 17.2595 15.7668 17.0569 16.0935 16.7277C16.4032 16.4242 16.6416 16.054 16.7909 15.6462C16.919 15.3145 17.0709 14.8169 17.1125 13.8995C17.1575 12.9078 17.1668 12.6102 17.1668 10.0992C17.1668 7.5882 17.1575 7.29067 17.1125 6.29892C17.0709 5.38154 16.919 4.88395 16.7909 4.55223C16.6212 4.11363 16.4201 3.79986 16.0935 3.4707C15.7922 3.1587 15.4254 2.91858 15.0201 2.76792C14.6909 2.63882 14.1971 2.48579 13.2867 2.44389ZM8.32304 12.9984C8.98881 13.2777 9.73014 13.3153 10.4204 13.105C11.1107 12.8947 11.7071 12.4494 12.1078 11.8453C12.5085 11.2411 12.6885 10.5155 12.6173 9.79238C12.546 9.06928 12.2278 8.39355 11.717 7.88059C11.3914 7.5527 10.9976 7.30163 10.5642 7.14545C10.1307 6.98928 9.66825 6.9319 9.21012 6.97743C8.752 7.02296 8.30959 7.17027 7.91475 7.40877C7.51991 7.64726 7.18245 7.971 6.92669 8.35668C6.67092 8.74236 6.5032 9.18038 6.43559 9.63922C6.36799 10.0981 6.40219 10.5663 6.53574 11.0102C6.66928 11.4541 6.89884 11.8627 7.20789 12.2065C7.51694 12.5503 7.8978 12.8207 8.32304 12.9984ZM6.12291 6.68108C6.56839 6.23221 7.09725 5.87614 7.67929 5.63321C8.26133 5.39028 8.88516 5.26524 9.51516 5.26524C10.1452 5.26524 10.769 5.39028 11.351 5.63321C11.9331 5.87614 12.4619 6.23221 12.9074 6.68108C13.3529 7.12996 13.7062 7.66285 13.9473 8.24934C14.1884 8.83582 14.3125 9.46441 14.3125 10.0992C14.3125 10.734 14.1884 11.3626 13.9473 11.9491C13.7062 12.5356 13.3529 13.0685 12.9074 13.5174C12.0077 14.4239 10.7875 14.9332 9.51516 14.9332C8.24282 14.9332 7.02259 14.4239 6.12291 13.5174C5.22324 12.6108 4.7178 11.3813 4.7178 10.0992C4.7178 8.81717 5.22324 7.58763 6.12291 6.68108ZM15.3765 5.98515C15.4869 5.88021 15.5753 5.75403 15.6364 5.61407C15.6975 5.47411 15.7301 5.32321 15.7324 5.17031C15.7346 5.01741 15.7063 4.86561 15.6493 4.72391C15.5922 4.58221 15.5075 4.45349 15.4002 4.34536C15.2929 4.23723 15.1652 4.1519 15.0245 4.09441C14.8839 4.03692 14.7333 4.00845 14.5815 4.01068C14.4298 4.01291 14.28 4.0458 14.1411 4.10739C14.0022 4.16898 13.877 4.25803 13.7729 4.36927C13.5703 4.5856 13.4594 4.87294 13.4638 5.17031C13.4681 5.46767 13.5872 5.75164 13.7959 5.96193C14.0046 6.17222 14.2864 6.29227 14.5815 6.29661C14.8766 6.30094 15.1618 6.18922 15.3765 5.98515Z" fill="#090A13"/>
</svg>
