<svg width="19" height="20" viewBox="0 0 19 20" fill="none" xmlns="http://www.w3.org/2000/svg">
<path fill-rule="evenodd" clip-rule="evenodd" d="M0.151551 2.26606C0.151551 1.8493 0.315856 1.4496 0.608322 1.1549C0.900788 0.860203 1.29746 0.694643 1.71107 0.694643H17.257C17.462 0.694306 17.665 0.734709 17.8545 0.81354C18.0439 0.892371 18.2161 1.00808 18.3611 1.15405C18.5061 1.30001 18.6211 1.47336 18.6996 1.66418C18.778 1.85499 18.8183 2.05953 18.8182 2.26606V17.9307C18.8184 18.1373 18.7782 18.3418 18.6999 18.5328C18.6216 18.7237 18.5067 18.8971 18.3617 19.0432C18.2168 19.1894 18.0447 19.3052 17.8553 19.3843C17.6659 19.4633 17.4629 19.5039 17.2579 19.5038H1.71107C1.5062 19.5038 1.30333 19.4631 1.11407 19.3841C0.924805 19.3051 0.752847 19.1893 0.608022 19.0432C0.463196 18.8972 0.348341 18.7239 0.270018 18.5331C0.191695 18.3424 0.151439 18.138 0.151551 17.9315V2.26606ZM7.54016 7.86606H10.0678V9.14509C10.4326 8.40982 11.366 7.74808 12.7685 7.74808C15.4574 7.74808 16.0946 9.21263 16.0946 11.8998V16.8774H13.3735V12.5119C13.3735 10.9815 13.0086 10.118 12.0821 10.118C10.7966 10.118 10.2621 11.0491 10.2621 12.5119V16.8774H7.54016V7.86606ZM2.87349 16.7602H5.59543V7.74808H2.87349V16.7594V16.7602ZM5.98488 4.80872C5.99002 5.04355 5.94854 5.27706 5.8629 5.49552C5.77726 5.71399 5.64918 5.91302 5.48617 6.08093C5.32316 6.24884 5.12851 6.38225 4.91363 6.47334C4.69876 6.56442 4.468 6.61134 4.23488 6.61134C4.00177 6.61134 3.77101 6.56442 3.55613 6.47334C3.34126 6.38225 3.14661 6.24884 2.9836 6.08093C2.82059 5.91302 2.6925 5.71399 2.60686 5.49552C2.52122 5.27706 2.47975 5.04355 2.48488 4.80872C2.49496 4.34777 2.68376 3.90912 3.01085 3.58671C3.33794 3.2643 3.77732 3.08376 4.23488 3.08376C4.69245 3.08376 5.13183 3.2643 5.45892 3.58671C5.78601 3.90912 5.97481 4.34777 5.98488 4.80872Z" fill="#090A13"/>
</svg>
