<svg width="22" height="22" viewBox="0 0 22 22" fill="none" xmlns="http://www.w3.org/2000/svg">
<path d="M17.44 6.55939C16.5942 6.37198 15.8291 5.9194 15.2544 5.2666C14.6797 4.6138 14.325 3.79434 14.2413 2.9258V2.54962H11.314V14.237C11.3146 14.7555 11.1532 15.2612 10.8528 15.6822C10.5523 16.1033 10.128 16.4184 9.63998 16.5829C9.15192 16.7475 8.62485 16.7532 8.13342 16.5991C7.642 16.445 7.21113 16.1391 6.90186 15.7246C6.62479 15.3577 6.45513 14.92 6.41206 14.4609C6.36899 14.0019 6.45424 13.5399 6.65816 13.1272C6.86208 12.7145 7.17654 12.3675 7.56598 12.1254C7.95542 11.8834 8.4043 11.7559 8.86186 11.7576C9.11492 11.7561 9.36671 11.7936 9.60853 11.8687V8.87634C9.32712 8.84122 9.04353 8.82694 8.76005 8.83359C7.71582 8.86171 6.7024 9.19604 5.84387 9.79565C4.98535 10.3953 4.31898 11.2341 3.92638 12.2095C3.53377 13.1849 3.43197 14.2545 3.63343 15.2873C3.83489 16.3201 4.33088 17.2713 5.06065 18.0244C5.80858 18.7907 6.76568 19.3155 7.81033 19.5324C8.85499 19.7493 9.94004 19.6483 10.9276 19.2424C11.9152 18.8365 12.7608 18.1439 13.3568 17.2526C13.9529 16.3614 14.2725 15.3117 14.2752 14.237V8.25222C15.4558 9.10201 16.8716 9.55659 18.3225 9.55176V6.64489C18.0375 6.64607 17.7531 6.61742 17.474 6.55939H17.44Z" fill="#090A13"/>
</svg>
