<svg width="20" height="16" viewBox="0 0 20 16" fill="none" xmlns="http://www.w3.org/2000/svg">
<path d="M19.9093 2.06061C19.2008 2.37695 18.4397 2.59069 17.6396 2.6873C18.4651 2.18954 19.0828 1.40611 19.3773 0.48321C18.6016 0.947445 17.7527 1.27422 16.8674 1.44932C16.2721 0.808835 15.4836 0.384313 14.6243 0.241661C13.765 0.0990086 12.883 0.246207 12.1153 0.660403C11.3475 1.0746 10.7369 1.73262 10.3784 2.5323C10.0198 3.33198 9.93322 4.22858 10.1322 5.0829C8.5605 5.00339 7.023 4.59177 5.61943 3.87476C4.21586 3.15775 2.9776 2.15138 1.98501 0.92095C1.64562 1.51087 1.45046 2.19484 1.45046 2.92327C1.45009 3.57902 1.61035 4.22473 1.91703 4.8031C2.22371 5.38148 2.66733 5.87463 3.20852 6.23881C2.58088 6.21869 1.96708 6.0478 1.41822 5.74037V5.79167C1.41816 6.71138 1.73389 7.6028 2.31183 8.31466C2.88978 9.02651 3.69434 9.51497 4.58901 9.69713C4.00676 9.85591 3.39633 9.8793 2.8038 9.76553C3.05622 10.5569 3.54791 11.2489 4.21005 11.7447C4.87218 12.2405 5.67161 12.5152 6.4964 12.5305C5.09626 13.638 3.3671 14.2388 1.58707 14.2361C1.27176 14.2362 0.95671 14.2177 0.643555 14.1806C2.45038 15.3511 4.55366 15.9724 6.70174 15.97C13.9733 15.97 17.9484 9.90147 17.9484 4.63832C17.9484 4.46733 17.9442 4.29463 17.9365 4.12364C18.7097 3.5602 19.3772 2.86248 19.9076 2.06318L19.9093 2.06061Z" fill="#090A13"/>
</svg>
